<?xml version="1.0" encoding="UTF-8"?>
<svg width="208px" height="50px" viewBox="0 0 208 50" version="1.1" xmlns="http://www.w3.org/2000/svg" xmlns:xlink="http://www.w3.org/1999/xlink">
    <!-- Generator: Sketch 52.5 (67469) - http://www.bohemiancoding.com/sketch -->
    <title>Group 6 Copy 3</title>
    <desc>Created with Sketch.</desc>
    <g id="Page-1" stroke="none" stroke-width="1" fill="none" fill-rule="evenodd">
        <g id="Group-6-Copy-3" fill="#FFFFFF">
            <g id="Group-6-Copy">
                <polygon id="Fill-1-Copy-6" points="52.8564706 9.31372549 52.8564706 49.5098039 63.1341176 49.5098039 63.1341176 44.1728611 58.1176702 44.1728611 58.1176702 29.8190994 63.1341176 29.8190994 63.1341176 24.4821566 58.1176702 24.4821566 58.1176702 14.6506683 63.1341176 14.6506683 63.1341176 9.31372549"></polygon>
                <polygon id="Fill-2-Copy-6" points="179.614118 9.31372549 179.614118 49.5098039 189.891765 49.5098039 189.891765 44.1728611 184.875317 44.1728611 184.875317 29.8190994 189.891765 29.8190994 189.891765 24.4821566 184.875317 24.4821566 184.875317 14.6506683 189.891765 14.6506683 189.891765 9.31372549"></polygon>
                <polygon id="Fill-3-Copy-6" points="13.7035294 0 13.7035294 49.5098039 23.9811765 49.5098039 23.9811765 44.1651834 18.9653783 44.1651834 18.9653783 25.1628227 23.9811765 25.1628227 23.9811765 19.8188632 18.9653783 19.8188632 18.9653783 5.34395942 23.9811765 5.34395942 23.9811765 0"></polygon>
                <polygon id="Fill-4-Copy-6" points="151.228235 0 151.228235 49.5098039 161.505882 49.5098039 161.505882 44.1651834 156.489435 44.1651834 156.489435 25.1628227 161.505882 25.1628227 161.505882 19.8188632 156.489435 19.8188632 156.489435 5.34395942 161.505882 5.34395942 161.505882 0"></polygon>
                <polygon id="Fill-5-Copy-6" points="0 0.490196078 0 49.5098039 10.2776471 49.5098039 10.2776471 44.2182175 5.22507587 44.2182175 5.22507587 0.490196078"></polygon>
                <path d="M33.3380102,29.1922254 L33.3380102,42.2478928 C33.3380102,44.0052096 34.2701833,44.3016007 34.9932648,44.3016007 C35.715699,44.3016007 36.5760171,43.5964396 36.5760171,42.1749451 L36.5760171,30.2923556 C36.5760171,28.3260535 35.787554,27.7983328 34.6320478,26.9919649 L30.3686505,24.2048368 C27.7682759,22.517839 27.4070588,21.5642614 27.4070588,17.2366881 L27.4070588,8.65514651 C27.4070588,4.03381088 27.6957736,2.64057545 28.9962845,1.46684032 C30.2242931,0.36671008 31.7416638,0 35.3538346,0 C41.0621002,0 42.5788235,1.61339291 42.5788235,7.84812146 L42.5788235,17.2366881 L36.5760171,17.2366881 L36.5760171,7.2612539 C36.5760171,5.86933284 35.643844,5.20754601 34.9932648,5.20754601 C34.2701833,5.20754601 33.3380102,5.95082397 33.3380102,7.40846368 L33.3380102,16.503268 L33.3380102,17.9701083 C33.4098652,18.7764762 34.2701833,19.1438434 35.2101246,19.8036587 L39.978449,22.9574968 C41.8563894,24.2777845 42.5788235,25.8182298 42.5788235,28.898463 L42.5788235,40.560895 C42.5788235,48.3360688 41.4958196,49.5098039 34.6320478,49.5098039 C31.0192296,49.5098039 29.5743613,48.9958841 28.4907101,47.3088863 C27.5514162,45.9156508 27.4070588,45.0350209 27.4070588,40.2677898 L27.4070588,29.1922254 L33.3380102,29.1922254 Z" id="Fill-6-Copy-6"></path>
                <polygon id="Fill-8-Copy-6" points="69.2736605 5.19579565 65.5811765 5.19579565 65.5811765 0 78.3058824 0 78.3058824 5.19579565 74.5396013 5.19579565 74.5396013 49.5098039 69.2736605 49.5098039"></polygon>
                <polygon id="Fill-10-Copy-6" points="82.2211765 0 88.079982 0 88.079982 15.1059776 91.5347791 15.1059776 91.5347791 0 97.3929412 0 97.3929412 40.6862745 91.5347791 40.6862745 91.5347791 20.4200576 88.079982 20.4200576 88.079982 40.6862745 82.2211765 40.6862745"></polygon>
                <polygon id="Fill-12-Copy-6" points="101.797647 49.5098039 107.181176 49.5098039 107.181176 0 101.797647 0"></polygon>
                <path d="M146.334118,0 L146.334118,41.2456834 C146.334118,45.1559432 146.045199,46.6319841 145.033662,47.8122911 C143.877988,49.1404651 142.576889,49.5098039 138.748235,49.5098039 C134.485882,49.5098039 133.040645,48.9932553 132.029752,47.1485327 C131.379203,45.9682257 131.162353,44.5657897 131.162353,41.2456834 L131.162353,0 L137.020515,0 L137.020515,42.1309136 C137.020515,43.7259053 137.953548,44.1971081 138.748235,44.1971081 C139.542922,44.1971081 140.475956,43.6168124 140.475956,42.1309136 L140.475956,0 L146.334118,0 Z" id="Fill-14-Copy-6"></path>
                <polygon id="Fill-15-Copy-6" points="167.645425 5.19579565 163.952941 5.19579565 163.952941 0 176.677647 0 176.677647 5.19579565 172.911366 5.19579565 172.911366 49.5098039 167.645425 49.5098039"></polygon>
                <path d="M198.759753,29.4814277 L198.759753,42.6667546 C198.759753,43.9189813 199.691499,44.740384 200.414118,44.740384 C201.136736,44.740384 201.9977,44.2488619 201.9977,42.5928614 L201.9977,30.5924655 C201.9977,28.5241143 201.209448,28.0741572 200.05313,27.2593521 L195.790777,24.4441512 C193.189866,22.7406479 192.828235,21.7780563 192.828235,17.4071386 L192.828235,8.74051593 C192.828235,4.0740252 193.117154,2.66675463 194.418253,1.48182358 C195.645996,0.370126014 197.163944,0 200.775748,0 C206.483338,0 208,1.62961008 208,7.92571089 L208,17.4071386 L201.9977,17.4071386 L201.9977,7.33324537 C201.9977,5.98271426 201.064667,5.25961602 200.414118,5.25961602 C199.691499,5.25961602 198.759753,5.87253414 198.759753,7.48169163 L198.759753,16.6668866 L198.759753,18.1480504 C198.831822,18.9628554 199.691499,19.3336412 200.630967,20 L205.399089,23.1853269 C207.277382,24.5187042 208,26.0737613 208,29.185195 L208,40.9625915 C208,48.8150689 206.916394,50 200.05313,50 C196.440683,50 194.995446,49.4814277 193.912484,47.7779244 C192.973016,46.3706538 192.828235,45.4812958 192.828235,40.6670185 L192.828235,29.4814277 L198.759753,29.4814277 Z" id="Fill-16-Copy-6"></path>
                <polygon id="Fill-17-Copy-6" points="52.8564706 5.39215686 63.1341176 5.39215686 63.1341176 0 52.8564706 0"></polygon>
                <polygon id="Fill-18-Copy-6" points="82.2211765 49.5098039 97.3929412 49.5098039 97.3929412 44.1176471 82.2211765 44.1176471"></polygon>
                <polygon id="Fill-19-Copy-21" points="179.614118 5.39215686 189.891765 5.39215686 189.891765 0 179.614118 0"></polygon>
                <path d="M117.517604,42.878538 L117.517604,7.12146203 C117.517604,5.84152537 118.448611,5.26687339 119.171443,5.26687339 C119.893633,5.26687339 120.825283,5.6218249 120.825283,7.12146203 L120.825283,42.878538 C120.825283,44.3781751 119.893633,44.7331266 119.171443,44.7331266 C118.448611,44.7331266 117.517604,44.3781751 117.517604,42.878538 M125.601116,2.0030349 C124.445227,0.519232038 122.856281,0 119.171443,0 C115.847701,0 114.402679,0.371445537 113.247432,1.48380286 C111.946977,2.74526621 111.585882,4.15451607 111.585882,8.75371116 L111.585882,41.3208419 C111.585882,45.3262519 111.875015,46.8100548 112.741129,47.9969651 C113.81349,49.3738867 115.26301,49.9195091 118.41006,49.9907633 L118.41006,50 L126.757647,50 L126.757647,41.3208419 L126.757647,41.0180115 L126.757647,8.75371116 C126.757647,4.6737481 126.467872,3.18994524 125.601116,2.0030349" id="Fill-20-Copy-6"></path>
            </g>
        </g>
    </g>
</svg>